<?xml version="1.0" encoding="utf-8"?>
<!-- Generator: Adobe Illustrator 26.0.2, SVG Export Plug-In . SVG Version: 6.00 Build 0)  -->
<svg version="1.1" id="Layer_1" xmlns="http://www.w3.org/2000/svg" xmlns:xlink="http://www.w3.org/1999/xlink" x="0px" y="0px"
	 viewBox="0 0 161 138.8" style="enable-background:new 0 0 161 138.8;" xml:space="preserve">
<style type="text/css">
	.st0{fill-rule:evenodd;clip-rule:evenodd;}
	.st1{fill:#E10000;}
	.st2{fill:url(#SVGID_1_);}
	.st3{opacity:0.5;fill:url(#SVGID_00000165194998115436268220000013573845555396547752_);}
	.st4{opacity:0.5;fill:url(#SVGID_00000116920488246301007390000006800980985048133765_);}
	.st5{fill:url(#SVGID_00000025435946317456912880000005585444811106213039_);}
	.st6{fill:url(#SVGID_00000172404472135618350540000014855350731991891338_);}
	.st7{fill:url(#SVGID_00000057862898451010879240000011824321934490478005_);}
	.st8{opacity:0.9;}
	.st9{fill:url(#SVGID_00000124126162345424208400000003000968962177276047_);}
	.st10{fill:#FFFFFF;}
	.st11{fill:url(#SVGID_00000060010236986980171970000013569046982838183808_);}
	.st12{opacity:0.5;fill:url(#SVGID_00000085972182736803243850000004081671125324162213_);}
	.st13{opacity:0.5;fill:url(#SVGID_00000087380226118431564180000016194647368276525740_);}
	.st14{fill:url(#SVGID_00000003073253007885494560000006886116954994032297_);}
	.st15{fill:url(#SVGID_00000065763683093699995940000003017993250910250898_);}
	.st16{fill:url(#SVGID_00000112629393850624202250000000150698618355528330_);}
	.st17{fill:url(#SVGID_00000033355060663491512240000016829683632934450110_);}
	.st18{fill:#2E86AB;}
	.st19{fill:url(#SVGID_00000114039002518087986940000009977320078677105040_);}
	.st20{opacity:0.5;fill:url(#SVGID_00000153690446194150594100000004340020016032998278_);}
	.st21{opacity:0.5;fill:url(#SVGID_00000145776327482527907460000013685282711560405439_);}
	.st22{fill:url(#SVGID_00000102540798762794032710000014657888919266140838_);}
	.st23{fill:url(#SVGID_00000039848175138620143920000013863609683922357142_);}
	.st24{fill:url(#SVGID_00000099621012857455207360000016070022126563285913_);}
	.st25{fill:url(#SVGID_00000091727238328495827260000015292191451189837194_);}
	.st26{fill:url(#SVGID_00000095300338595804920670000007848193092752741031_);}
	.st27{opacity:0.5;fill:url(#SVGID_00000061431724576512634740000010845526313808658078_);}
	.st28{opacity:0.5;fill:url(#SVGID_00000031201885331654437190000000904753922371085709_);}
	.st29{fill:url(#SVGID_00000035518648836814439490000011493788874878024869_);}
	.st30{fill:url(#SVGID_00000065786539514998461660000014392788024604822423_);}
	.st31{fill:url(#SVGID_00000060712452181607325190000013714329763689311908_);}
	.st32{fill:url(#SVGID_00000058570887458092194980000004885188423356960408_);}
	.st33{fill-rule:evenodd;clip-rule:evenodd;fill:#FFFFFF;}
	.st34{fill-rule:evenodd;clip-rule:evenodd;fill:#1D1E1C;}
	.st35{fill:#1D1E1C;}
	.st36{fill:url(#SVGID_00000028316600318335872580000008579088658173991829_);}
	.st37{opacity:0.5;fill:url(#SVGID_00000032628451595136878380000004250243227253810877_);}
	.st38{opacity:0.5;fill:url(#SVGID_00000044899893749717593330000008416297607620619144_);}
	.st39{fill:url(#SVGID_00000182517974384966715390000014852279828382705543_);}
	.st40{fill:url(#SVGID_00000137812464004689923970000008181655423672452502_);}
	.st41{fill:url(#SVGID_00000181797657790746581640000005274936353382789760_);}
	.st42{fill:url(#SVGID_00000065048272912709903760000012020281031570399384_);}
	.st43{fill:url(#SVGID_00000123413698463777610980000003557308682096341674_);}
	.st44{opacity:0.5;fill:url(#SVGID_00000057143018009848961170000010348466515696821669_);}
	.st45{opacity:0.5;fill:url(#SVGID_00000108292287930088201280000008656611629367369857_);}
	.st46{fill:url(#SVGID_00000018210740507708806520000004776341737273768363_);}
	.st47{fill:url(#SVGID_00000047053783296787855620000004488495474844005802_);}
	.st48{fill:url(#SVGID_00000090254514688343311100000000682278938832591780_);}
	.st49{fill:url(#SVGID_00000046317010714300853870000016279622592049334414_);}
	.st50{fill:#39AAAA;}
	.st51{fill:url(#SVGID_00000008123896829891881510000005839346717448027039_);}
	.st52{opacity:0.5;fill:url(#SVGID_00000000188191859584354230000002875163239771632795_);enable-background:new    ;}
	.st53{opacity:0.5;fill:url(#SVGID_00000167372249495646513430000017661474675623043770_);enable-background:new    ;}
	.st54{fill:url(#SVGID_00000137810669139224480940000001050651315070056832_);}
	.st55{fill:url(#SVGID_00000084493213896203913610000004426584581313251260_);}
	.st56{fill:url(#SVGID_00000065769651138435266320000006828684442160075908_);}
	.st57{fill:url(#SVGID_00000030475755604619441370000011763110817744914612_);}
	.st58{fill:url(#SVGID_00000092448174957227521710000011526990535782355117_);}
	.st59{opacity:0.5;fill:url(#SVGID_00000095321189934623699030000007096881999261265538_);enable-background:new    ;}
	.st60{opacity:0.5;fill:url(#SVGID_00000095309631609853040180000002583313073762886786_);enable-background:new    ;}
	.st61{fill:url(#SVGID_00000077305171756565580450000008995834968463849386_);}
	.st62{fill:url(#SVGID_00000024679756803777675640000010632826262652271757_);}
	.st63{fill:url(#SVGID_00000065069363858125686490000002393203304247228829_);}
	.st64{fill:url(#SVGID_00000161599109289227108160000013601486868315375778_);}
	.st65{fill:url(#SVGID_00000168834904828896885430000009419421670127241890_);}
	.st66{opacity:0.5;fill:url(#SVGID_00000093172687488521679400000004196332712610323114_);enable-background:new    ;}
	.st67{opacity:0.5;fill:url(#SVGID_00000106835615062773908960000007576471677274503840_);enable-background:new    ;}
	.st68{fill:url(#SVGID_00000101799030033981212870000012577056527620523419_);}
	.st69{fill:url(#SVGID_00000072961003881090616270000001057276637296531612_);}
	.st70{fill:url(#SVGID_00000109013340182086721280000014591101565130853305_);}
	.st71{fill:url(#SVGID_00000179623410639244531420000013800134626458291353_);}
</style>
<g>
	<g>
		<polygon class="st0" points="136.8,27.9 88.5,27.9 64.3,69.8 88.5,111.6 136.8,111.6 161,69.8 		"/>
	</g>
	<g>
		<g>
			<path class="st1" d="M77.6,0.7c13.5-3.1,33.2,4.5,35.9,21.6c0.6,3.8,0.2,7.9-3,10.1c-3.4,2.2-6.7,4.5-10,6.9
				c-6.4,4.6-12.7,9.4-18.8,14.4c-6,5-12,10.2-17.4,16.1c7.5,8,16.2,14.8,24.8,21.3c4.7,3.6,9.5,7,14.4,10.3
				c2.7,1.8,5.4,3.5,8.1,5.3c2.2,1.5,2.9,4.4,2.8,7.1c-0.1,13.3-11.8,21.5-22.1,24c-2.9,0.7-5.8,1.1-8.7,1c-2.4,0-5.3-0.2-7.5-1.4
				c-1.6-0.9-2.6-3.4-3.5-5.1c-1.3-2.4-2.7-4.8-4.1-7.2c-6-10.4-12.5-20.3-19-30.3c-1.6-2.5-5.3-2.6-7.1-0.2c-2.1,2.8-4,5.7-5.9,8.5
				c-2.8,4.2-5.5,8.4-8.1,12.7c-1.2,2.1-2.4,4.1-3.6,6.2c-0.8,1.4-1.6,3.8-3.3,3.8c-4.4-0.1-9-3.8-12.2-6.9c-3.8-3.8-6.7-8.5-8-14
				c-0.6-2.3-1-5.1-0.5-7.5C1.4,95,4.2,93.9,6,92.6c17.1-13,23.6-22.6,23.6-22.6s-1.3-1.5-1.6-1.8c-1.7-1.8-3.4-3.6-5.1-5.4
				C19.1,58.9,15,55.3,10.9,52c-2.1-1.7-4.2-3.3-6.4-4.9c-1-0.8-2.4-1.4-3.3-2.3c-0.7-0.7-0.9-2-1-3c-0.5-5.2,1.5-10.8,4.1-15.1
				c2.7-4.5,6.7-8.4,11.1-10.8c1.6-0.9,4-2.3,5.9-1.8c1.4,0.3,2.5,3.2,3.2,4.5c5.9,10.2,13.3,20.4,17.6,26.2c1.8,2.4,5.3,2.3,7-0.1
				c3.5-4.9,8.7-12.2,10.5-15c2.8-4.4,5.4-8.9,7.9-13.5c2.2-4.2,4.1-8.5,6.2-12.7C74.4,1.6,75.9,1.1,77.6,0.7z"/>
		</g>
		<g>
			<linearGradient id="SVGID_1_" gradientUnits="userSpaceOnUse" x1="-6.6039" y1="86.0161" x2="119.3878" y2="35.1122">
				<stop  offset="0" style="stop-color:#FFFFFF;stop-opacity:0"/>
				<stop  offset="0.4434" style="stop-color:#FFFFFF;stop-opacity:0.5"/>
				<stop  offset="1" style="stop-color:#FFFFFF;stop-opacity:0"/>
			</linearGradient>
			<path class="st2" d="M64.3,69.8c0.5-0.5,1-1.1,1.5-1.6c5-5.2,10.5-10,15.9-14.5c6.1-5.1,12.4-9.9,18.8-14.4
				c3.3-2.4,6.6-4.7,10-6.9c3.2-2.1,3.6-6.2,3-10.1C110.8,5.2,91.2-2.4,77.6,0.7c-1.7,0.4-3.2,0.9-4.1,2.7c-2.1,4.2-4,8.6-6.2,12.7
				c-2.5,4.6-5.1,9.1-7.9,13.5c-1.8,2.9-7,10.1-10.5,15c-1.7,2.4-5.3,2.4-7,0.1c-1.9-2.5-4.4-5.9-7-9.8c4.7,10.6,3.1,24.2-5.2,35
				c0,0-6.5,9.6-23.6,22.6c-1.7,1.3-4.6,2.5-5.1,4.9c-0.5,2.4-0.1,5.2,0.5,7.5c1.4,5.5,4.3,10.3,8,14c3.2,3.1,7.8,6.8,12.2,6.9
				c1.7,0,2.5-2.3,3.3-3.8c1.2-2.1,2.4-4.2,3.6-6.2c2.6-4.3,5.3-8.5,8.1-12.7c1.9-2.9,3.8-5.7,5.9-8.5c1.8-2.4,5.4-2.3,7.1,0.2
				c1.8,2.7,3.5,5.4,5.3,8.1C52.5,92.1,55.7,79.6,64.3,69.8z"/>
		</g>
		
			<linearGradient id="SVGID_00000153674038268615194490000009674002172025445048_" gradientUnits="userSpaceOnUse" x1="0" y1="41.9364" x2="37.3964" y2="41.9364">
			<stop  offset="5.208333e-04" style="stop-color:#FFFFFF;stop-opacity:0.25"/>
			<stop  offset="1" style="stop-color:#000000"/>
		</linearGradient>
		<path style="opacity:0.5;fill:url(#SVGID_00000153674038268615194490000009674002172025445048_);" d="M29.6,69.9
			c0,0-1.3-1.5-1.6-1.8c-1.7-1.8-3.4-3.6-5.1-5.4C19.1,58.9,15,55.3,10.9,52c-2.1-1.7-4.2-3.3-6.4-4.9c-1.1-0.8-2.4-1.4-3.3-2.3
			c-0.8-0.7-0.9-2-1.1-3c-0.5-5.2,1.5-10.8,4.1-15.1c2.7-4.5,6.7-8.4,11.1-10.8c1.6-0.9,4-2.2,5.9-1.8c1.4,0.4,2.5,3.2,3.2,4.5
			c3.3,5.7,7.1,11.4,10.5,16.4c0,0,0,0,0,0C39.5,45.5,37.9,59.1,29.6,69.9z"/>
		
			<linearGradient id="SVGID_00000042732916858934090020000014952828943333065111_" gradientUnits="userSpaceOnUse" x1="54.107" y1="104.289" x2="114.3942" y2="104.289">
			<stop  offset="0" style="stop-color:#000000"/>
			<stop  offset="1" style="stop-color:#FFFFFF;stop-opacity:0.25"/>
		</linearGradient>
		<path style="opacity:0.5;fill:url(#SVGID_00000042732916858934090020000014952828943333065111_);" d="M114.4,113.8
			c-0.1,13.3-11.8,21.5-22,24c-2.9,0.7-5.8,1.1-8.7,1c-2.4,0-5.3-0.2-7.5-1.4c-1.6-0.9-2.6-3.4-3.5-5.1c-1.3-2.4-2.7-4.8-4.1-7.2
			c-4.4-7.6-9-14.9-13.7-22.2c-2.4-10.9,0.8-23.5,9.5-33.3c7.5,8,16.2,14.8,24.8,21.3c4.7,3.6,9.5,7,14.4,10.3
			c2.7,1.8,5.4,3.5,8,5.3C113.8,108.1,114.4,111,114.4,113.8z"/>
		<g>
			
				<linearGradient id="SVGID_00000019673126121417084130000008143737248746548366_" gradientUnits="userSpaceOnUse" x1="5.5782" y1="114.9391" x2="6.2091" y2="114.6842">
				<stop  offset="0" style="stop-color:#FFFFFF;stop-opacity:0"/>
				<stop  offset="0.4434" style="stop-color:#FFFFFF;stop-opacity:0.5"/>
				<stop  offset="1" style="stop-color:#FFFFFF;stop-opacity:0"/>
			</linearGradient>
			<path style="fill:url(#SVGID_00000019673126121417084130000008143737248746548366_);" d="M5,113.6c0.5,0.9,1.1,1.7,1.7,2.5
				C6.1,115.3,5.6,114.4,5,113.6z"/>
			
				<linearGradient id="SVGID_00000116915353038871014870000001959238858591046079_" gradientUnits="userSpaceOnUse" x1="7.2972" y1="117.3771" x2="8.1904" y2="117.0162">
				<stop  offset="0" style="stop-color:#FFFFFF;stop-opacity:0"/>
				<stop  offset="0.4434" style="stop-color:#FFFFFF;stop-opacity:0.5"/>
				<stop  offset="1" style="stop-color:#FFFFFF;stop-opacity:0"/>
			</linearGradient>
			<path style="fill:url(#SVGID_00000116915353038871014870000001959238858591046079_);" d="M6.8,116.1c0.6,0.8,1.3,1.6,2,2.3
				C8,117.6,7.4,116.8,6.8,116.1z"/>
			
				<linearGradient id="SVGID_00000142866611151951594830000017158046782934054024_" gradientUnits="userSpaceOnUse" x1="53.2615" y1="101.3352" x2="54.0505" y2="101.0164">
				<stop  offset="0" style="stop-color:#FFFFFF;stop-opacity:0"/>
				<stop  offset="0.4434" style="stop-color:#FFFFFF;stop-opacity:0.5"/>
				<stop  offset="1" style="stop-color:#FFFFFF;stop-opacity:0"/>
			</linearGradient>
			<path style="fill:url(#SVGID_00000142866611151951594830000017158046782934054024_);" d="M54.9,103C54.9,103,54.9,103.1,54.9,103
				c-0.8-1.2-1.6-2.5-2.4-3.8L54.9,103z"/>
		</g>
		<g class="st8">
			
				<linearGradient id="SVGID_00000022536015993138374610000008324533213493849511_" gradientUnits="userSpaceOnUse" x1="63.4941" y1="46.1313" x2="100.6708" y2="8.9545">
				<stop  offset="0.1674" style="stop-color:#FFFFFF;stop-opacity:0"/>
				<stop  offset="1" style="stop-color:#FFFFFF;stop-opacity:0.9"/>
			</linearGradient>
			<path style="fill:url(#SVGID_00000022536015993138374610000008324533213493849511_);" d="M64.6,47.1c1.8,2.3,4.7,3.5,7.6,3.4
				c3.5-0.2,5.9-2.6,8.5-4.7c6.3-5,13-9.4,19.9-13.6c1.7-1.1,3.5-2.1,5.2-3.2c0.7-0.4,2.2-1,2.6-1.7c1.3-2,0.4-5.7-0.2-7.8
				c-1.5-5.1-5.5-9.3-10.1-11.9c-2.8-1.6-5.9-2.7-9.1-3.3C87,4,84.9,3.9,82.8,4.1c-0.3,0-2.4,0.3-3.8,0.7c-0.9,0.2-1.6,1.1-1.9,1.9
				c-0.3,1-0.8,2.2-1,2.7c-0.3,0.9-0.7,1.8-1,2.7c-0.7,1.9-1.4,3.7-2.1,5.6c-2.5,6.3-5.3,12.5-8.8,18.4
				C62.2,39.7,61.9,43.8,64.6,47.1z"/>
		</g>
	</g>
	<g>
		<path class="st10" d="M107.8,87.9L100,73.7h-5.5v14.2h-6.4V51.6h12.2c7.6,0,13.4,2.7,13.4,10.8c0,5.6-2.9,8.9-7.3,10.4l8.7,15.2
			H107.8z M94.5,68.6h5.1c5,0,7.7-2.1,7.7-6.2c0-4.2-2.7-5.6-7.7-5.6h-5.1V68.6z"/>
		<path class="st10" d="M125.2,73.7l-8.1-13.1h6.9l3.1,5.2c0.8,1.5,1.7,3.1,2.5,4.6h0.2c0.7-1.5,1.4-3.1,2.1-4.6l2.6-5.2h6.6
			L133,74.4l8.7,13.5h-6.9l-3.3-5.4c-0.9-1.6-1.8-3.3-2.8-4.8h-0.2c-0.8,1.6-1.6,3.2-2.4,4.8l-2.9,5.4h-6.7L125.2,73.7z"/>
	</g>
</g>
</svg>
